<?xml version="1.0" encoding="UTF-8"?>
<svg id="Layer_1" xmlns="http://www.w3.org/2000/svg" version="1.1" viewBox="0 0 1143.4 301.9">
  <!-- Generator: Adobe Illustrator 29.6.1, SVG Export Plug-In . SVG Version: 2.1.1 Build 9)  -->
  <defs>
    <style>
      .st0 {
        fill: #731c5d;
      }

      .st1 {
        fill: #1c4173;
      }

      .st2 {
        fill: #1c7346;
      }
    </style>
  </defs>
  <path class="st0" d="M232.7,95.5c-13.4,17.3-30.2,32.8-45.3,48.3-7,7.2-13.6,15.1-21.1,21.9,8.3-1.7,28.9-24.6,35.5-24.6s20.2,16.7,20.3,21.8-6.2,5-8.5,6.1c-19.4,8.7-43.9,12.6-64.1,20-4,.9-11-7.9-8.4-11.5,22.8-34.4,41.7-71.4,63.8-106.2,2.3-3.6,5.2-5.8,6.8-8.1s6-12.4,7.6-13.5,2.6.4,3.5,1.6c4.3,5.6,13.8,24.1,15.1,30.9s-1.1,8.1-5.2,13.4Z"/>
  <path class="st1" d="M25.3,48.1l79.9,133.9-6.1,7c-9.3-2.1-71.8-19.6-74.4-23.8-3.5-5.7,13.6-23.4,19.1-24s2.1,0,3.4.5c5.1,2.1,14.7,12.8,20.1,16l3,1c-16.5-19.3-35.8-36.3-52.5-55.5-2.5-2.9-10.2-11.1-11-14-3.4-11.2,11.9-30.4,16.5-40.4l2.1-.6ZM73.3,161.1l-2-2v2s2,0,2,0Z"/>
  <path class="st2" d="M946.3,125.1c-1.2,0-3-1-4.5-1-7.5.3-14.9-.3-19.5,7-.4-.5-2-1-2.5-2-1.4,1.2-2.2,2.7-2.4,4.5-1.1,6.8-1,35,0,41.9,1.5,10.1,11.8,7.7,13.5,10.5l.5,2.5-1.6,2.5h-47.5c-3.1-9.3,5.6-5.4,9.5-9,2-1.8,2.8-5,3.4-7.6-1.7-32.5,2.5-67.7.1-100-.2-2.9-.5-5.7-1.6-8.4l-11.3-3.2c-2.5-4.7-.7-6.4,4.2-6.8,16.6-1.6,55.7-1.1,70.8,4.3,8.5,3,15,5.7,18.9,14.1,6.5,13.7,3.3,33.9-9.7,42.7s-16.3,7.8-20.5,8ZM917.3,122.1c14-6.5,30.5.2,36.3-18.2,2.9-9.3,2.8-26.2-3.3-34.3-3.6-4.8-11.5-6.1-17.5-6.5s-10.6-.2-15.5,2v57Z"/>
  <path class="st2" d="M557.3,191.1l.2-5.8c7.5-2.1,11.1-2.1,11.8-10.7,2.6-33.8-2.1-70.9,0-105,1.4-7-10.3-5.3-11.9-6.6s-1.1-4-.7-4.9c.9-2,3.2-1.9,5-2.1,8.9-.9,31.5-1.1,40.1,0,4.7.6,3.4,2.9,3.4,7-5.5.3-12.5.9-13,7.5,2.5,33.1-3.2,70.6,0,103.1.8,8.3,5,10.6,13,11.5v5.9c0,0-47.9,0-47.9,0Z"/>
  <path class="st1" d="M163.9,273.5c-9-10.8-18.9-21.2-27.5-32.2-2.2-2.8-5.5-6.5-7.4-9.2s-1.1-1-.7-2.5c.3-3.2,4.1-2.6,6.3-3.8,11.3-6.1,9-14,25.4-15.6,39.4-3.8,65.2,41.2,41.2,73.2-2.5,3.3-14.8,15.8-18.8,13.2-6.3-7.6-12.1-15.6-18.4-23.2ZM186,267.7c13.2-17.2-1.6-42.2-23.9-38.4s-12.5,3.7-9.2,7.7l26.9,33.1,3,.9c.7-1.3,2.6-2.5,3.2-3.3Z"/>
  <path class="st2" d="M818.3,55.1c-7.1-1-18.6-.5-23,6-30.4-1.1-33,45.8-29.9,67.4s10.3,32.4,19.5,43.5,15.7,15.4,25.4,15.1c4.7,1.3,13.2,1.7,18,1-22.4,14.2-51,6.6-68-12.5-22.9-25.7-24.7-65.4-7.8-94.9,11.6-20.1,43.3-35.3,65.8-25.7Z"/>
  <path class="st0" d="M117.3,228.2l-.5,2.9-54.5,65.6c-10.9-2.1-22-16.4-25.1-26.9-9.2-31,14.3-61.5,46.7-59.6,2.5.1,12.8,2.3,14.5,3.5,1.1.8,1.1,2.9,2,4,4.8,5.4,10,8.6,17,10.5ZM93.2,233.2c-.3-.4-8.4-3.7-9.6-3.9-25.2-4.4-39.8,26.6-19.8,42.7l28.5-34.4c.9-1,1.6-3.3.9-4.4Z"/>
  <path class="st1" d="M1083.3,60.1c1.8,3.4,3.6,7.8,5,11.5,14,35.6,24.9,72.6,38.8,108.2,2.3,4.8,5.7,4,10.1,5.4v5.9c.1,0-42.9,0-42.9,0v-5.9c4.4-1.4,8.4-.8,8.1-6.6l-13.2-37.4c-9.8,1.1-24.7-1.9-33.9-.1.2-2-.2-4.1,0-6h31s-15-44-15-44c.3-.7,0-2.5.5-4,3.4-9.2,6.6-18.6,11.5-27Z"/>
  <path class="st1" d="M485.3,60.1c17.5,35.2,27,77.5,42.3,114.2,3.1,7.4,3.5,10.5,12.6,10.9v5.9c.1,0-42.4,0-42.4,0l-1.4-4.4c1.4-4.2,9.1,1.2,7.8-10l-12.4-34.6-36.5-1c.9-2.6,2.5-4.6,3-6h31s-15-43-15-43c2.3-11,6.6-21.7,11-32Z"/>
  <path class="st2" d="M633.3,184.1c3.8-3.2,5.4-5.4,6-10.5-2.2-32.5,3-69,0-101.1s-1-6.2-2.3-7.2c-2.9-2.3-14.5-.7-11.3-7.2,1-2,3.1-1.9,5-2.1,8.8-.9,31.5-1.1,40.1,0,4.7.6,3.4,2.9,3.4,7-8.1.6-12.1.7-13,9.5-3.3,33,2.5,71.4,0,105,.5,1.9,1,6.9,4,6.5-10.5.2-21.4,0-32,0Z"/>
  <path class="st1" d="M818.3,55.1c8.5,1.2,24.2,12.3,29.4,19.1,18,23.7,20.7,59.5,7.3,86.1-3.8,7.4-18.6,26.7-26.7,27.8-4.8.7-13.3.3-18-1,25.7-.8,31.4-40.9,30-60.5-1.7-23.9-16.7-64.5-45-65.5,4.4-6.5,15.9-7,23-6Z"/>
  <path class="st1" d="M373.3,64.1c-1.1,1.7-1,3.5-1,5.5-1.2,34.9,1,70.1,0,105,.4,7.1,6.1,11.1,13,10.5v6c-13.3.2-26.7-.3-40,0,.3-2.1-.4-5.1,0-7s3.2-3.1,3.5-5c1.9-35.9,2.6-73.3,1.5-109.6,0-1.9,0-3.8-1-5.5,8,0,16,0,24,0Z"/>
  <path class="st2" d="M141.3,148.1c0,3.7,2.4,10,1.9,13.3s-8.7,14.3-9.5,14.6h-22.6s-9.5-13.6-9.5-13.6l13.9-79.3h14.9s9,58,9,58h-14v7h16Z"/>
  <path class="st2" d="M176.3,4.1l10.9,34.3c-10,13.7-24.7,26.5-42.1,28.7l-2.6-2.8-15.1-36.2,49-24Z"/>
  <path class="st2" d="M64.9,46.5c-1.8-1.9-6.4-6.5-6.5-8.9l11-33.5c2.1-1.5,15.8,8.5,19,10.3,9.4,5.1,19.4,9.1,28.8,14.2-1.3,5.1-15,38.7-17.5,39.3-3.4-2.2-7.9-2.3-11.1-3.7-8-3.4-17.8-11.5-23.7-17.8Z"/>
  <path class="st1" d="M946.3,125.1l8.2,14.4c12.1,10.6,22.4,40.1,38.6,44.4,3,.8,7,0,10.1,1.4v5.9c.1,0-51.4,0-51.4,0l-1.4-4.4,5.8-2.7c.4-1.7.2-3.3-.4-4.9-3-7-19.6-28.4-25-35.9-2.4-3.3-6.4-9.7-8.4-12.1,4.6-7.2,12.1-6.7,19.5-7s3.3,1,4.5,1Z"/>
  <path class="st2" d="M349.3,64.1c-9.4,0-19.6-1.6-28.9,1.6s-19.4,17.2-20.1,25.4c-8.2.6-7-2.9-5.5-9s5.8-16.5,7.7-24.8l1.7-.7h113.1c1.7,1,8.7,26.6,8.9,30.2s-1.5,4.2-5.4,5.4c-2.7-9.3-10.9-23.2-20.6-26.5s-14.9-2.6-18.4-2.6c-3.2,0-5.9,1.1-8.5,1.1-8,0-16,0-24,0Z"/>
  <path class="st0" d="M118.1,181.3c18.8-3.5,33,17.7,21.3,33.3-11.2,14.9-36.6,7.4-37.9-11.1-.7-9.4,7.4-20.4,16.7-22.1Z"/>
  <path class="st2" d="M1083.3,60.1c-4.9,8.5-8.1,17.9-11.5,27-.6,1.5-.2,3.2-.5,4-5,13.3-14.3,29.5-16,44s.2,4,0,6c-.8.2-3.3,1.7-3.8,2.7l-12.1,34c-.5,8.8,6.7,4.8,8.5,8.3,4.3,8.3-21.6,6.8-26,6-1.3-.3-2.3-.8-3.1-2-2.3-8.4,7.8-3.9,11.8-10.3,5.4-15.9,11.9-31.4,17.7-47.2s14.1-44.2,22.5-64.5c2.5-6,7.1-18.1,12.5-8Z"/>
  <path class="st2" d="M485.3,60.1c-4.4,10.3-8.7,21-11,32-2.6-.6-1.9,1.4-2.5,2.9-5.3,13.2-8.8,27-13.5,40.1s-2.1,3.4-3,6c-2.9,8.3-12.6,29.3-13,36.5s2.6,6,7.9,7.6v5.7c-1,1.7-22.8,1.5-26.1.9-4.1-.7-2.8-2.9-2.6-6.6,6.4-1.5,9-.8,12.4-7.1,15.3-35.4,24.9-74.8,40-110,.7-1.6,4.9-11.2,5.4-11.6,5.1-3.4,5.3,2,6,3.5Z"/>
  <path class="st0" d="M646.3,226.1l-4,.5c3.3-5,3-12.6,11-10.5-2.8,4.9-3.6,24.9.6,27.9s2.8.3,4.4,0v-24.5c0-.4-2.8-1.8-2-3.5h17.5l16.5,21v-18c0-.2-4-.4-3-3h21.5c.4,0,4.7,2,5.5,2.5,7.6,5.2,8.3,20.1.4,25.3-3.6,2.3-15,4.8-18.4,2.7s2-3.2,2-4v-23c0-2.6-7-1.3-7,1v25.5c-1.7.4-2-.5-3-1.5-5.8-5.9-9.9-15.6-16-21.5v19.5c0,1.9,3.1,2.7,3,3-3,3.2-7.5.5-11.4.5-6.7,0-12.9,1.3-19.6,1-1.1-3.7,2-2.8,2-3v-18ZM670.3,245.1v-25.5c0-2-7-2-7,0v23l7,2.5ZM703.3,244.1c12.2,1.4,15.1-15.3,8.6-23.1-1.9-2.3-8.6-4.6-8.6-1.4v24.5Z"/>
  <path class="st0" d="M782.3,219.6c-.4-1.3-4-.7-3-3.5,9.4-2.2,14.8,10,18.6,17s-.3,2.5,2.4,2v-15.5c0-.4-2.7-1.7-2-3.5,8.3,1.1,17-1.7,25,1.5,11.6,4.6,11.6,22.5.4,27.4-3.2,1.4-15.9,4-17.4.6-.3-2.5,2.5-.9,3-4s.5-18.2,0-21-3.3-2.5-6-2.5v27.5c0,.5-2.2,2.1-3,1.5-3.6-8.9-9.7-16.7-16-24v21c0,.2,3.1-.7,2,3-3.7-1.4-15.5,1.6-17-1.5l2-2-2.1-7.4h-8.3c-2.4,3.1-2.5,7.3-1.7,11h-6s12.5-30,12.5-30c1.5-.3,2.1,1.3,2.7,2.3,3.4,6.1,5.1,17,8.3,23.7,1,2,5.5.9,5.5-.5,0-4.7.9-19.9,0-23ZM814.3,219.6v23c0,1,2.4,1.6,3.5,1.6,8.3,0,10-13.5,7.6-19.6s-9.6-9.6-11.1-4.9ZM767.3,234.1c.5-.5-1-8.6-3-9l-3,9h6Z"/>
  <path class="st0" d="M1045.3,226.1c.3-1.6,1.3-9.8,4.5-9s7,22,9.6,25.4c2,2.5,5.9,1.7,5.9.1v-23.5c0-.2-3.9-.4-3-3,1.8.1,3.8-.3,5.5,0,4,.8,11.8,17,16.5,20v-16.5c0-.4-2.7-1.7-2-3.5,8.4,1.2,20.2-2.2,27.5,3s6,24.4-4.2,26.8c-2.5.6-13.9,1.7-15.3.2s.6-2.6,2-2v-24.5l-1.6-1.4-4.4.9v28c-2.4-.2-4.9-4.1-6.4-6.1-4.7-6.1-8.1-13.4-13.6-18.9v20.5c0,.9,2.9,1.4,3,1.5,2.9,4.1-15.3,2.4-17,3,2.1-7.9,0-13.4-9-10.5l-2.5,5.5c-1.9-1.4-1.3-2-.8-3.8s3.7-11.2,5.3-12.2c-.4,2.4-.3,5.4-1,8h6s-2-9-2-9c-1.2-.1-2.1.4-3,1ZM1097.3,219.6v23c15.2,8.1,16.6-24.6,3.5-24.6-1.2,0-3.1.4-3.5,1.6Z"/>
  <path class="st1" d="M665.3,184.1c16.5-.3,33.6,3.3,47.3-7.2,4.8-3.6,13-18,17.6-10.4l-14.4,24.6h-89c-1.9,0-3.9-6.9,6.5-7s21.5.2,32,0Z"/>
  <path class="st0" d="M461.8,216.1c6.1,1.1,10.1,9.2,5.2,13.7-1,.9-3.4.9-3.7,1.3-1.9,2.6,7.3,16.5,12.9,12.9v-24.5c0-.4-2.8-1.8-2-3.5h20v6c-3,.5-1.8-2.6-4.9-3.6-2.3-.7-4.7-.4-7.1-.4v11c2-.2,4.5.4,6.3-.2,2-.7,1.8-4.4,4.7-3.8l-5,11-2-.5,1-4.5h-5s0,13,0,13c2.7-.2,5.6.4,8.3-.2s3.3-2.9,5.7-2.8c.7.7-1.6,4.5-2.4,5.1-3.6,2.6-24.2,0-29.9.8l-8.1-13.9c-.6,2.3-.9,6.3-.5,8.5s4.1,1.8,3,5.5c-1.8.2-13.4.7-10.9-2.9.5-.1,1.4,0,1.6-.3.7-1,.7-21.6.4-24.3s-2.8-.4-2.1-3.4c4.4.5,10.3-.7,14.5,0ZM455.3,231.1c7.9-.5,10.9-6,6-12.5l-6-.5v13Z"/>
  <path class="st2" d="M130.2,49.3c.8,3.4,5,9.3,5.2,12.4s-6,12.8-5.1,17.3h-14.8c-.6-4.6-5-12.4-5.2-16.4s3.2-10.5,4.2-11.9c2.2-3.1,11.9-1.2,15.8-1.4Z"/>
  <path class="st0" d="M913.3,216.1v1.5c-.4.6-2,1.7-2,2v24.5c3.1,0,6.7.3,9.6-.8s1.7-3.5,4.4-3.2c.5.5-1.9,5.5-2.5,6-3.8,3.4-25.4-1.1-31.5,0-.8-3,1.8-1,2.1-3.4.5-4.1.5-17.1,0-21.1s-1.9-3.2-2.1-5.4h22ZM905.3,244.1v-24.5c0-2-7-2-7,0v23c1.6,2.3,4.6,1.4,7,1.5Z"/>
  <path class="st0" d="M1019.3,216.1l-3,4.5.6,9.5h10.4c-.3-3,.5-6.6,0-9.5s-2.2-2.5-2-4.5h10c.2,2.6-2.5,2.9-3,5.5s-.4,19.3.1,20.8c1.2,3.6,5.3,3,6.8-.3-.2,3.4,4.2.3,3,5h-17c1.9-5.2,2.5-9.4,2-15l-10.6.9c-.7,1-.7,7.1-.5,8.6.5,2.8,4.1,1.8,3,5.5-2.6-.4-9.8,1.2-11-1.5s2.7-.8,3.1-2v-23s-3.1-4.5-3.1-4.5h11Z"/>
  <path class="st0" d="M411.3,244.2v2.9c0,0-10.9,0-10.9,0l.4-4-7.4-10v10.5c.2,1.2,4.1-.4,3,2s-8.4,1.2-11,1.5c-1-3.2,1.9-2.4,2.1-4.4.5-4.3.6-17,0-21.1s-1.9-3.2-2.1-5.4c6.1.2,19.9-1.8,21,6.6s-6.9,8.4-7,9.9c4.3,3.5,5.6,11,11.9,11.6ZM393.3,230.1c10.9,1.3,10.9-13.3,0-12v12Z"/>
  <path class="st0" d="M568.3,216.1c.3,3.5-2.9.4-1.8,5.2s4.8,11.3,5.8,16.8l3-1-3,10h-2.9c-1.2-.8-6-24.1-9-27.5-1.9-2.2-6.1-1.7-6.1,0v23c0,1,4.2,1,3,3.5-2.7-.2-9.5,2.8-11-.5-.6-2.2,1.8-1.4,2.5-2.4s.8-18.6.4-21.5-2.9-2.4-2.9-5.6h22Z"/>
  <path class="st0" d="M972.3,247.1c2.8-9.3,3.4-21.9,0-31,11.1-.8,23.7,0,24.8,13.8s-13,18.7-24.8,17.2ZM979.3,219.6v23c12.2,6.6,16.2-14.7,8.9-21.9-2-2-7.9-4.4-8.9-1.1Z"/>
  <path class="st0" d="M380,243.8c-.9.9-4.2,2.9-5.4,3.1-21.3,4.8-24.8-33.9-.7-30.8,11.6,1.5,13.5,20.2,6.1,27.7ZM367.1,218.3c-8.2,2.5-4.1,28.7,6.5,26.6,10.7-2,5.5-30.2-6.5-26.6Z"/>
  <path class="st0" d="M604.3,216.1v6c-3.3.8-1.2-2.1-2.6-3.1s-7.1-1.5-8.5-.5l-.9,10.6c4.8.6,7.6,0,10.5-4,1.2,3.5-3.2,7.8-5,11l-.5-5h-5s0,13,0,13l8.3-.2,6.7-3.8-3.5,7h-18l-1.5-2.5c0-.9,1.9-.6,2.5-1.5s1-21.5.3-23.4l-1.5-1.6c-1.2-.3-2.3-.2-3.4.4-2.8,1.4-1.7,6.3-4,7.5l-1-10h27Z"/>
  <path class="st0" d="M969.3,216.1v6c-2.9.3-2.2-2.8-4.9-3.6-2.3-.6-4.7-.5-7.1-.4v11s7.5,0,7.5,0c1.2-.3-.4-4.9,2.6-2.6l-4,9.5-2-.5,1-4.5h-5s0,13,0,13c2.7-.2,5.6.4,8.3-.2,3-.7,3.8-3.7,6.7-3.8.6.6-4.1,7-4.5,7h-18.5c-1-3.2,1.9-2.4,2.1-4.4.5-4.3.6-17,0-21.1s-1.9-3.2-2.1-5.4h20Z"/>
  <path class="st0" d="M1135.3,216.1l1,10h-3c.8-3.9-4.9-10.8-8.6-8.1-10.3,7.8,17.2,11.4,11.8,23.8-3.5,8.1-12.7,3.9-19.2,5.3l-1-11c3.3,0,2.9,4.8,5.5,7,3.5,3.1,9.2,3,9.5-2.6s-17.9-9.9-13.5-20.4,12-2.6,17.5-4Z"/>
  <path class="st0" d="M740.3,216.1l1,10c-3.1.4-2.4-3.7-4.4-6.1-4-4.7-9.4-3-8.7,3.6s14,5.5,14.2,15-11.9,7.9-19.1,8.5l-2-10,3.1.6c.1,4.5,5.5,9.1,9.9,6.9,9.3-9.6-10.4-11-11.1-20-.9-12.2,9.4-7.3,17.1-8.5Z"/>
  <path class="st0" d="M877.3,227.1c-.4,4.3,3.7,10.8,6.6,13.9s2.8,1.9,5,3c1,.5,1.9-.5,1.4,2.1h-12c2.1-4.2-3.3-8.7-6-12,.3,2.5-.6,6.1.1,8.4s3.7.7,2.9,3.6h-10c-.8-3,1.8-1,2.1-3.4.5-4.1.5-17.1,0-21.1s-1.9-3.2-2.1-5.4h10c.2,2.6-2.5,2.9-3,5.5s.3,5.8,0,8.5l5-3c.3-3.5,2.2-5.7,5-7.6l-1-3.4h8s-10,10.5-10,10.5l-2,.5Z"/>
  <path class="st0" d="M447.3,220.1c.8,1.1-6.4,8.5-7.5,9-3.4,1.4.2-4.1.4-4.7,1.2-5.9-7.3-9.3-10.7-2.6s-1.2,15.1,2.9,19.9c5.6,6.5,8.1,1.7,14-.5.4,1.9-4.7,5.5-5.7,5.8-14,4-22.9-13.2-15.7-24.7,5.4-8.7,15.1-7.5,22.4-2.1Z"/>
  <path class="st0" d="M529.3,218.1c-5.6-.6-8.2,2.9-12,6-.2-2.3,0-7,2.7-7.8s23.7-.5,24.4.5l1.9,7.4-7.2-5.3c-1.2-1-4.8-.6-4.8.8v23c0,.6,4.6,1.6,3,4.5-3.5-.6-10.8,2-11-3h3v-26Z"/>
  <path class="st0" d="M356.3,216.1v7c-3.5.3-.9-3.2-4.9-4.6-9-3-7,4.2-7.1,10.6,2.5,2.5,14.9-6.9,5.5,7-3.4.6.5-4.1-.5-5h-5c.5,3.2-.8,8.5.1,11.4s3.4.8,2.9,3.1c-1,2.3-9.9,2.3-11,0l3-4v-21.1c0,0-3-4.5-3-4.5h20Z"/>
  <path class="st0" d="M851.3,217.1c-.3,3.1-3.1,3.2-1.3,6.7s21.9,9.2,11.8,20.3c-5.2,5.7-10.7,1.2-16.5,3l-2-10h3c-.6,12.5,18.7,8.1,11-.5s-15.8-5.6-11.5-17.5l5.5-2Z"/>
  <path class="st0" d="M926.8,247.1c-.8-.2-1.8-1.9-1.5-3l3.1-.5v-23s-3.1-4.5-3.1-4.5h11c1.1,2.6-3,2.4-3,3.5v24.5c3.4,0,7.4.4,10.6-.8s1.7-3.5,4.4-3.2l-3.5,7c-4.8-.9-13.9,1.2-18,0Z"/>
  <path class="st0" d="M520.8,243.8c.3.5,2.6.5,1.6,3.4h-9c1.3-4.2.5-7.3-1.6-11.1l-8.3.2c-.9.8.2,5.9-3.1,4.9l3.5-9c.9,3.5,4.5,1.6,7.5,2l-3-10-2,1,2-8c1.9-.3,3,1.2,3.8,2.7,3.3,6.4,4.8,16.5,8.6,23.9Z"/>
  <path class="st0" d="M635.4,238.1c2.1,1.7,2.2-4.1,4-2s0,1.7-.2,2.3c-.6,2.5-2.9,9.4-5.7,7.6l-9.1-20.9-3,3c1.9-5.5.2-7.3-2-12,1.4,0,3.1-.3,4.5,0,4.2.8,9.8,17.6,11.5,22Z"/>
  <path class="st2" d="M345.3,184.1c-.4,1.9.3,4.9,0,7-.1,0-1.1,1.1-2.5,1.1-2.2,0-4.3-.9-6.4-1.2v-5.8s8.9-1.1,8.9-1.1Z"/>
  <path class="st0" d="M623.7,243.9c0,.2,2.8.7,1.7,3.2-2.2-.1-7,.8-8-1.5-.5-2.3,2-1.1,2.8-3.1s.9-6.8,1.2-9.3l2.3,10.7Z"/>
  <path class="st0" d="M862.3,216.1l1,10c-4.6-.6-3.1-7-8-8.5l7-1.5Z"/>
  <path class="st0" d="M502.3,247.1c-2.4.1-6.2.6-6-3,3,2,.9-1.2,3.5-1l2.5,4Z"/>
</svg>